<svg width="30" height="30" viewBox="0 0 30 30" fill="none" xmlns="http://www.w3.org/2000/svg">
<g id="icons-duotone">
<path id="tone" opacity="0.15" fill-rule="evenodd" clip-rule="evenodd" d="M15 6.25C7.04545 6.25 2.5 15 2.5 15C2.5 15 7.04545 23.75 15 23.75C22.9545 23.75 27.5 15 27.5 15C27.5 15 22.9545 6.25 15 6.25ZM18.75 15C18.75 17.0711 17.0711 18.75 15 18.75C12.9289 18.75 11.25 17.0711 11.25 15C11.25 12.9289 12.9289 11.25 15 11.25C17.0711 11.25 18.75 12.9289 18.75 15Z" fill="#001A72"/>
<g id="shape">
<path d="M15 6.25C7.04545 6.25 2.5 15 2.5 15C2.5 15 7.04545 23.75 15 23.75C22.9545 23.75 27.5 15 27.5 15C27.5 15 22.9545 6.25 15 6.25Z" stroke="#686868" strokeＷidth="1.5" stroke-linecap="round" stroke-linejoin="round"/>
<path d="M15 18.75C17.0711 18.75 18.75 17.0711 18.75 15C18.75 12.9289 17.0711 11.25 15 11.25C12.9289 11.25 11.25 12.9289 11.25 15C11.25 17.0711 12.9289 18.75 15 18.75Z" stroke="#686868" strokeＷidth="1.5" stroke-linecap="round" stroke-linejoin="round"/>
</g>
</g>
</svg>
