<svg width="30" height="30" viewBox="0 0 30 30" fill="none" xmlns="http://www.w3.org/2000/svg">
<g id="icons-duotone">
<path id="shape" d="M25 18.5418C26.6352 16.6647 27.5 15 27.5 15C27.5 15 22.9545 6.25 15 6.25C14.5735 6.25 14.1567 6.27516 13.75 6.32277C13.3222 6.37285 12.9055 6.44777 12.5 6.5444M15 11.25C15.4383 11.25 15.859 11.3252 16.25 11.4634C17.3155 11.84 18.16 12.6845 18.5366 13.75C18.6748 14.141 18.75 14.5617 18.75 15M3.75 3.75L26.25 26.25M15 18.75C14.5617 18.75 14.141 18.6748 13.75 18.5366C12.6845 18.16 11.84 17.3155 11.4634 16.25C11.3923 16.049 11.3379 15.8401 11.3018 15.625M5.18377 11.25C4.79846 11.6806 4.45293 12.103 4.1483 12.5C3.06608 13.9103 2.5 15 2.5 15C2.5 15 7.04545 23.75 15 23.75C15.4265 23.75 15.8433 23.7248 16.25 23.6772" stroke="#686868" stroke-width="1.5" stroke-linecap="round" stroke-linejoin="round"/>
</g>
</svg>
