<svg width="24" height="24" viewBox="0 0 24 24" fill="none" xmlns="http://www.w3.org/2000/svg">
<path d="M12.2 21.4C17.1705 21.4 21.2 17.3706 21.2 12.4C21.2 7.42946 17.1705 3.40002 12.2 3.40002C7.22939 3.40002 3.19995 7.42946 3.19995 12.4C3.19995 17.3706 7.22939 21.4 12.2 21.4Z" fill="white" stroke="#242424" stroke-width="1.5"/>
<path d="M12.2 12.6C13.8568 12.6 15.2 11.2569 15.2 9.60004C15.2 7.94318 13.8568 6.60004 12.2 6.60004C10.5431 6.60004 9.19995 7.94318 9.19995 9.60004C9.19995 11.2569 10.5431 12.6 12.2 12.6Z" fill="white" stroke="#242424" stroke-width="1.5"/>
<path d="M18.2 19C18.2 17.4 17 15.3 15.2 15.3H9.19995C7.39995 15.3 6.19995 17.4 6.19995 19" stroke="#242424" stroke-width="1.5"/>
</svg>
