<?xml version="1.0" encoding="utf-8"?>
<!-- Generator: Adobe Illustrator 27.5.0, SVG Export Plug-In . SVG Version: 6.00 Build 0)  -->
<svg version="1.1" id="圖層_1" xmlns="http://www.w3.org/2000/svg" xmlns:xlink="http://www.w3.org/1999/xlink" x="0px" y="0px"
	 viewBox="0 0 1360.63 1360.63" style="enable-background:new 0 0 1360.63 1360.63;" xml:space="preserve">
<style type="text/css">
	.st0{fill:#14FF00;}
	.st1{fill:#FFFFFF;}
</style>
<path class="st0" d="M452.41-1.39C202.55-1.39,0,202.08,0,453.08c0,82.88,22.44,160.33,61.02,227.23C22.44,747.22,0,824.67,0,907.55
	c0,251,202.55,454.47,452.41,454.47c82.5,0,159.61-22.54,226.21-61.3c66.6,38.75,143.7,61.3,226.21,61.3
	c249.86,0,452.41-203.47,452.41-454.47c0-82.88-22.44-160.33-61.02-227.24c38.58-66.9,61.02-144.36,61.02-227.23
	c0-251-202.55-454.47-452.41-454.47c-82.5,0-159.61,22.54-226.21,61.3C612.02,21.15,534.91-1.39,452.41-1.39z"/>
<ellipse class="st1" cx="678.62" cy="709.66" rx="264.62" ry="265.83"/>
<ellipse class="st0" cx="678.62" cy="709.66" rx="57.69" ry="57.95"/>
<ellipse class="st0" cx="535.98" cy="640.7" rx="32.51" ry="32.65"/>
<ellipse class="st0" cx="694.41" cy="548.15" rx="59.62" ry="59.89"/>
<ellipse class="st0" cx="851.74" cy="709.66" rx="36.14" ry="36.3"/>
<ellipse class="st0" cx="723.47" cy="872.18" rx="43.24" ry="43.43"/>
<ellipse class="st0" cx="547.33" cy="803.23" rx="35.45" ry="35.61"/>
</svg>
